<svg width="45" height="45" viewBox="0 0 45 45" fill="none" xmlns="http://www.w3.org/2000/svg">
<path d="M21.9609 30.7891L24.5586 28.1523C21.9805 27.957 20.3008 27.1758 19.0312 25.9062C15.6133 22.4883 15.6328 17.6445 19.0117 14.2656L25.3789 7.89844C28.7969 4.5 33.6016 4.48047 37.0195 7.89844C40.4375 11.3164 40.3984 16.1406 37.0195 19.5195L33.1914 23.3477C33.7383 24.5977 33.8555 26.043 33.6602 27.3125L39.4023 21.5898C44.0703 16.9023 44.1094 10.2812 39.3828 5.53516C34.6367 0.789062 27.9961 0.828125 23.3086 5.51562L16.6484 12.1953C11.9609 16.8828 11.9219 23.5234 16.668 28.25C17.8984 29.4805 19.4609 30.3594 21.9609 30.7891ZM22.4492 14.6953L19.8516 17.332C22.4297 17.5469 24.1094 18.3086 25.3789 19.5781C28.7969 22.9961 28.7773 27.8398 25.3984 31.2188L19.0117 37.5859C15.6133 40.9844 10.8086 41.0039 7.39062 37.6055C3.97266 34.168 3.99219 29.3633 7.39062 25.9648L11.2188 22.1367C10.6719 20.9062 10.5352 19.4414 10.75 18.1719L5.00781 23.8945C0.339844 28.582 0.300781 35.2227 5.02734 39.9492C9.77344 44.6953 16.4141 44.6562 21.082 39.9883L27.7617 33.2891C32.4492 28.6016 32.4883 21.9609 27.7422 17.2344C26.5117 16.0039 24.9492 15.125 22.4492 14.6953Z" fill="black"/>
</svg>
