<svg width="100" height="100" viewBox="0 0 100 100" fill="none" xmlns="http://www.w3.org/2000/svg">
<rect width="100" height="100" rx="25" fill="white"/>
<path d="M50.57 20H13.33V21.54C19.98 21.54 20.75 22.66 20.75 26.93V69C20.75 73.27 19.98 74.39 13.33 74.39V76H34.54V74.39C27.61 74.39 26.84 73.27 26.84 69V49.61H37.06C41.33 49.61 42.45 50.45 42.45 57.73H43.99V38.97H42.45C42.45 46.25 41.33 47.09 37.06 47.09H26.84V25.95C26.84 23.92 27.89 22.8 29.99 22.8H42.59C47.63 22.8 49.03 24.13 49.87 33.93L51.76 33.72L50.71 21.75L50.57 20ZM70.8788 77.12C79.2788 77.12 85.0188 71.24 85.0188 62.98C85.0188 54.37 78.9288 49.47 71.9988 44.29C65.7688 39.6 61.3588 35.96 61.3588 30.08C61.3588 25.53 64.2988 21.47 69.6888 21.47C77.1788 21.47 81.1688 28.82 82.0088 37.92H83.6188L82.7088 19.58H81.0988L80.8188 21.68C80.6788 23.22 79.6988 23.5 78.5088 22.45C75.9888 20.07 73.2588 18.88 69.4088 18.88C61.7788 18.88 56.1088 23.85 56.1088 31.69C56.1088 39.81 62.0588 44.36 68.7788 49.4C74.5888 53.81 79.8388 58.08 79.8388 64.8C79.8388 69.35 77.1788 74.46 70.8088 74.46C63.3188 74.46 57.9288 66.27 57.4388 55.56H55.7588L55.6888 76.14H57.2988L57.9288 72.92C58.2788 71.17 58.9788 71.17 60.2388 72.36C62.9688 75.16 66.7488 77.12 70.8788 77.12Z" fill="black"/>
</svg>
