<svg width="352" height="77" viewBox="0 0 352 77" fill="none" xmlns="http://www.w3.org/2000/svg">
<path d="M20.7796 18.008H18.003L6.19007 54.0527C5.18042 57.1321 4.06979 57.7884 0.889378 57.7884V59H12.2985V57.7884C7.50262 57.7884 7.45214 56.9807 8.41131 54.0527L10.885 46.2279H24.4144L26.8375 54.0022C27.7462 56.9807 27.6957 57.7884 22.7989 57.7884V59H38.1457V57.7884C34.8643 57.7884 33.7537 57.1321 32.6935 54.0527L20.7796 18.008ZM17.5992 25.2775H17.8011L23.7581 44.259H11.5412L17.5992 25.2775Z" fill="black"/>
<path d="M71.6006 21.7491L72.4197 12.6436L80.4558 13.3659L80.2704 15.4283L74.8157 14.9368L74.6565 16.7073L78.7184 17.0735L78.5408 19.0515L74.479 18.6854L74.1826 21.9821L71.6006 21.7491Z" fill="#212121"/>
<path d="M82.3233 24.9694C80.9387 24.0341 80.1346 23.0331 79.911 21.9666C79.6875 20.9 80.0129 19.7182 80.8872 18.4212L83.5117 14.5303L85.66 15.9864L82.8892 20.094C82.671 20.3987 82.5115 20.7414 82.4188 21.1047C82.3499 21.3897 82.3446 21.6864 82.4032 21.9736C82.4616 22.2429 82.5828 22.4946 82.7569 22.7081C82.9448 22.9368 83.1655 23.1363 83.4119 23.3001C83.6545 23.4641 83.9201 23.5908 84.2 23.6762C84.4608 23.7591 84.7377 23.7773 85.0071 23.7293C85.2931 23.6732 85.5638 23.5563 85.8008 23.3865C86.1014 23.1645 86.3583 22.8886 86.5584 22.5728L89.33 18.4651L91.4777 19.9177L88.8539 23.8086C87.9786 25.1061 87.0154 25.8568 85.9642 26.0608C84.913 26.2647 83.6994 25.901 82.3233 24.9694Z" fill="#212121"/>
<path d="M86.9453 29.2897L93.0494 25.789L91.4712 23.0312L93.2906 21.9873L97.7359 29.7558L95.9158 30.7997L94.3305 28.0263L88.2264 31.527L86.9453 29.2897Z" fill="#212121"/>
<path d="M89.5916 37.7025C89.4817 36.0339 89.7793 34.7844 90.4843 33.9539C91.1893 33.1234 92.3212 32.6569 93.8798 32.5544L98.5599 32.2471L98.7297 34.837L93.7878 35.1621C93.4139 35.1759 93.0459 35.2595 92.7027 35.4086C92.4352 35.5286 92.1975 35.7063 92.0066 35.9291C91.8305 36.1413 91.7071 36.3923 91.6465 36.6614C91.5807 36.9501 91.5583 37.2471 91.58 37.5424C91.5972 37.8331 91.6578 38.1196 91.7597 38.3923C91.8537 38.6497 92.0091 38.8802 92.2125 39.0637C92.4322 39.2553 92.6902 39.3978 92.9694 39.4815C93.3293 39.5845 93.7052 39.6193 94.0779 39.5842L99.019 39.2598L99.1895 41.8498L94.5094 42.1572C92.9498 42.2601 91.767 41.9577 90.9611 41.2499C90.1551 40.5422 89.6986 39.3597 89.5916 37.7025Z" fill="#212121"/>
<path d="M86.8125 48.7326C87.0704 48.6588 87.3397 48.6331 87.6069 48.6568C87.8722 48.6802 88.1311 48.7142 88.385 48.7602C88.639 48.8063 88.8845 48.8466 89.1207 48.8828C89.3486 48.9198 89.5812 48.9174 89.8083 48.8757C90.0351 48.832 90.2483 48.7349 90.4301 48.5924C90.6225 48.4441 90.8013 48.205 90.9663 47.875L91.649 46.5046L88.6637 45.0173L89.8203 42.6943L97.9943 46.7701L95.7589 51.2588C95.0963 52.5903 94.4231 53.4463 93.7393 53.8268C93.0555 54.2074 92.3316 54.2074 91.5676 53.8268C91.2322 53.6723 90.9416 53.4349 90.723 53.137C90.5362 52.8678 90.4151 52.5586 90.3693 52.234C90.3213 51.8806 90.3318 51.5217 90.4004 51.1717C90.4726 50.7818 90.5813 50.3996 90.7251 50.0301C90.469 50.4994 90.2141 50.8313 89.9604 51.0258C89.7138 51.2157 89.4283 51.3485 89.1243 51.4146C88.8415 51.4801 88.5496 51.4968 88.2612 51.4642C87.9674 51.4321 87.672 51.388 87.3749 51.3318C87.0778 51.2756 86.7795 51.2265 86.48 51.1845C86.1852 51.1391 85.8852 51.1406 85.5908 51.1887L86.8125 48.7326ZM92.1477 49.2284C91.6497 50.2284 91.744 50.9 92.4306 51.2433C93.0989 51.5766 93.6825 51.2433 94.1814 50.2432L95.1718 48.2602L93.138 47.2446L92.1477 49.2284Z" fill="#212121"/>
<path d="M84.521 51.6807L88.8361 59.7373L81.407 63.7282L80.4294 61.9038L85.5757 59.1417L84.8358 57.7643L80.8319 59.9151L79.9547 58.2706L83.9593 56.1198L83.2151 54.7324L77.812 57.6361L76.833 55.8096L84.521 51.6807Z" fill="#212121"/>
<path d="M68.2276 54.7385C68.7238 54.8825 69.2078 55.0658 69.675 55.2867C70.0922 55.4835 70.4942 55.7112 70.8775 55.968C71.2078 56.1879 71.5226 56.4302 71.8198 56.6932C72.0589 56.9035 72.2778 57.1359 72.4734 57.3872L70.8917 58.8972C70.5569 58.4538 70.089 58.0147 69.4882 57.5799C68.8454 57.1238 68.1293 56.7813 67.371 56.5671C66.7937 56.3972 66.3394 56.3419 66.0078 56.4014C65.6763 56.4609 65.4752 56.6117 65.4044 56.854C65.3464 57.0499 65.4407 57.2373 65.6874 57.4163C66.0447 57.6596 66.4206 57.8747 66.8114 58.0593L68.3536 58.8178C68.7435 59.0115 69.12 59.2314 69.4804 59.4758C69.8155 59.6996 70.1168 59.9703 70.3753 60.2796C70.6121 60.5622 70.7845 60.893 70.8804 61.2492C70.9729 61.6313 70.9577 62.0317 70.8365 62.4057C70.7258 62.7895 70.521 63.1396 70.2409 63.4241C69.9396 63.7226 69.5677 63.9399 69.16 64.0558C68.6602 64.1967 68.1406 64.2541 67.6221 64.2258C66.9535 64.1904 66.2919 64.0714 65.6527 63.8717C65.1433 63.7263 64.6465 63.5396 64.1672 63.3136C63.7758 63.1281 63.4003 62.9106 63.0446 62.6635C62.7548 62.4618 62.4838 62.2345 62.2346 61.9843C62.0356 61.7834 61.853 61.567 61.6885 61.337L63.2978 59.9418C63.5619 60.354 63.9628 60.7456 64.5004 61.1167C65.0557 61.4961 65.668 61.7842 66.3141 61.9701C67.4507 62.3049 68.0873 62.239 68.2241 61.7725C68.2868 61.5582 68.1791 61.3391 67.9008 61.1153C67.5492 60.8474 67.1668 60.6225 66.7619 60.4453L65.3648 59.7754C64.9196 59.5625 64.4884 59.3214 64.0738 59.0537C63.724 58.8319 63.4071 58.562 63.1323 58.252C62.8966 57.9858 62.7269 57.6677 62.6371 57.3235C62.5546 56.9633 62.5707 56.5875 62.6838 56.2357C62.7969 55.843 63.004 55.484 63.2872 55.1896C63.5974 54.8779 63.9803 54.6486 64.4013 54.5225C64.8602 54.3738 65.4075 54.3119 66.0432 54.3369C66.6789 54.362 67.4071 54.4958 68.2276 54.7385Z" fill="#212121"/>
<path d="M60.3811 49.6551C61.4832 50.9115 62.0077 52.0838 61.9544 53.1721C61.9011 54.2604 61.2871 55.3213 60.1123 56.3548L56.5888 59.4533L54.8783 57.5035L58.5992 54.2316C58.8859 53.9917 59.1258 53.7006 59.3066 53.3732C59.4455 53.1149 59.5257 52.8291 59.5414 52.5361C59.5523 52.2602 59.4975 51.9857 59.3816 51.7351C59.2578 51.4662 59.0947 51.2173 58.8977 50.9964C58.7074 50.7755 58.4849 50.5844 58.2377 50.4299C58.0066 50.283 57.7431 50.195 57.4702 50.1735C57.1793 50.1551 56.8879 50.1996 56.6157 50.3038C56.2685 50.4431 55.9502 50.6458 55.6769 50.9015L51.956 54.1735L50.2441 52.2224L53.7677 49.1232C54.942 48.0906 56.0636 47.609 57.1328 47.6784C58.2019 47.7478 59.2847 48.4067 60.3811 49.6551Z" fill="#212121"/>
<path d="M57.3752 45.4612L48.5236 47.7069L47.2729 42.7742C47.089 42.0485 46.9961 41.4151 46.9942 40.874C46.9923 40.333 47.0751 39.8681 47.2425 39.4796C47.4016 39.1018 47.6621 38.7755 47.9951 38.5369C48.3696 38.2788 48.789 38.0932 49.2317 37.9895C49.6693 37.8711 50.1254 37.8373 50.5757 37.8896C50.9903 37.945 51.3834 38.107 51.7167 38.3599C52.0629 38.6186 52.372 38.989 52.6441 39.4711C52.9162 39.9531 53.1454 40.562 53.3317 41.2976L53.9288 43.6581L56.7385 42.9449L57.3752 45.4612ZM51.5562 41.8231C51.5047 41.6115 51.4325 41.4056 51.3404 41.2083C51.2632 41.0364 51.1501 40.8831 51.0086 40.7586C50.8712 40.6402 50.7051 40.5601 50.5269 40.5263C50.3072 40.4903 50.0822 40.5038 49.8683 40.566C49.4165 40.6807 49.1451 40.8948 49.0541 41.2083C48.9631 41.5218 48.9749 41.905 49.0895 42.3578L49.6908 44.7324L52.1334 44.1127L51.5562 41.8231Z" fill="#212121"/>
<path d="M55.7198 37.488L47.0273 34.6877L49.6086 26.6509L51.5773 27.2847L49.7883 32.8513L51.2738 33.3294L52.6653 28.9986L54.4401 29.5702L53.048 33.9045L54.5455 34.3868L56.4237 28.5432L58.3924 29.1771L55.7198 37.488Z" fill="#212121"/>
<path d="M64.6136 24.0297C64.3503 23.9773 64.099 23.8767 63.8722 23.733C63.6473 23.5913 63.4322 23.4419 63.2271 23.2847C63.0219 23.1275 62.8224 22.9787 62.6286 22.8385C62.4429 22.7016 62.2353 22.5974 62.0146 22.5304C61.7928 22.4657 61.5588 22.4548 61.3319 22.4986C61.0924 22.542 60.8238 22.6728 60.5262 22.8909L59.2932 23.7967L61.2676 26.488L59.1772 28.0262L53.7734 20.6544L57.8134 17.6862C59.0108 16.8066 60.0011 16.3536 60.7844 16.3271C61.5677 16.3007 62.2117 16.6326 62.7163 17.3229C62.9625 17.66 63.1075 17.9933 63.1514 18.3229C63.195 18.648 63.1623 18.9787 63.0559 19.2889C62.9367 19.6244 62.7635 19.938 62.543 20.2174C62.3 20.5318 62.0279 20.8225 61.7302 21.0857C62.1726 20.7854 62.5498 20.6069 62.862 20.5503C63.1676 20.4948 63.4816 20.5076 63.7817 20.5878C64.0632 20.66 64.3304 20.7798 64.5718 20.9419C64.817 21.1043 65.0595 21.2788 65.299 21.4653C65.5374 21.6515 65.7793 21.8328 66.0227 22.0092C66.2644 22.1843 66.532 22.3205 66.8157 22.4129L64.6136 24.0297ZM60.0954 21.1452C60.9962 20.4842 61.2195 19.8439 60.7653 19.2245C60.3225 18.6211 59.6512 18.6501 58.7514 19.3116L56.9645 20.6232L58.3085 22.4575L60.0954 21.1452Z" fill="#212121"/>
<path d="M127.943 31.3354C125.116 31.3354 122.794 33.2033 120.825 36.4342H120.623V31.9917L119.815 31.2345L112.243 34.2129L112.697 35.3741C115.726 34.1625 115.726 34.8692 115.726 38.2516V64.9065C115.726 68.1879 115.272 68.8946 112.192 68.8946V70.1062H124.207V68.8946C121.128 68.8946 120.623 68.1879 120.623 64.9065V55.971H120.724C122.087 58.3942 124.409 59.6058 126.782 59.6058C132.284 59.6058 135.465 52.8916 135.465 44.6124C135.465 36.8381 133.042 31.3354 127.943 31.3354ZM125.52 57.1826C122.844 57.1826 120.623 53.6993 120.623 48.0452V38.8574C121.936 36.6361 123.803 34.8187 125.873 34.8187C128.801 34.8187 130.164 38.605 130.164 45.3696C130.164 51.5285 128.953 57.1826 125.52 57.1826ZM155.062 59.8077L162.533 57.0312L162.079 55.8701C158.949 57.0312 158.848 56.3749 158.848 52.9925V32.3956L158.192 31.7393L150.367 34.2634L150.72 35.3741C153.85 34.4149 153.951 35.0207 153.951 38.3021V52.5382C152.336 54.709 150.316 56.4254 148.297 56.4254C146.379 56.4254 145.47 55.0119 145.47 52.0334V32.3956L144.763 31.7393L136.989 34.2634L137.342 35.3741C140.422 34.4149 140.573 35.0207 140.573 38.3021V52.5382C140.573 56.9807 142.592 59.8077 146.076 59.8077C149.66 59.8077 152.083 57.3341 153.8 54.608L153.951 54.6585L154.052 58.9495L155.062 59.8077ZM166.157 56.3749C168.883 58.7476 172.518 59.7572 175.396 59.7572C182.362 59.7572 186.148 53.8508 186.148 44.4105C186.148 36.0808 183.17 31.3354 178.677 31.3354C175.547 31.3354 173.174 33.2538 171.306 36.0808H171.105V18.1089L170.398 17.4022L166.662 19.3205L162.775 21.2389L163.33 22.299C166.258 20.835 166.157 21.4913 166.157 24.7727V56.3749ZM171.105 38.5545C172.367 36.4847 174.083 34.8187 176.102 34.8187C178.98 34.8187 180.848 38.1506 180.848 45.2687C180.848 52.9421 178.929 57.435 175.396 57.435C173.427 57.435 171.912 56.072 171.105 54.8099V38.5545ZM196.36 18.1089L195.603 17.4022L187.93 21.1379L188.434 22.2485C191.463 20.734 191.463 21.3903 191.463 24.6212V53.8003C191.463 57.0312 190.958 57.7884 187.879 57.7884V59H199.894V57.7884C196.815 57.7884 196.36 57.0312 196.36 53.8003V18.1089ZM207.739 26.3881C209.606 26.3881 210.969 25.0756 210.969 23.3087C210.969 21.4913 209.606 20.1787 207.739 20.1787C205.82 20.1787 204.457 21.4913 204.457 23.3087C204.457 25.0756 205.82 26.3881 207.739 26.3881ZM210.566 31.9917L209.707 31.2345L202.286 34.2129L202.741 35.3741C205.669 34.1625 205.719 34.8692 205.719 38.2516V53.8003C205.719 57.0312 205.214 57.7884 202.135 57.7884V59H214.15V57.7884C211.07 57.7884 210.566 57.0312 210.566 53.8003V31.9917ZM225.678 59.8077C230.222 59.8077 233.907 56.2739 234.462 47.8938H233.251C232.342 54.2546 229.768 55.971 227.496 55.971C223.356 55.971 221.337 50.7208 221.337 44.1581C221.337 38.4535 222.851 33.4557 226.486 33.4557C228.001 33.4557 228.96 34.3139 228.96 36.0303C228.96 37.0905 228.606 38.1001 228.606 38.9583C228.606 40.2204 229.414 41.2805 230.979 41.2805C232.696 41.2805 233.655 40.0185 233.655 37.8982C233.655 34.112 230.777 31.3354 226.537 31.3354C220.024 31.3354 216.339 37.6963 216.339 46.0764C216.339 54.1537 219.772 59.8077 225.678 59.8077ZM257.602 53.2954C257.501 56.4759 256.693 57.4855 255.633 57.4855C254.826 57.4855 254.321 56.8797 254.321 54.4061V39.5136C254.321 34.0615 251.292 31.2849 246.395 31.2849C241.296 31.2849 237.661 34.4149 237.661 38.1506C237.661 40.0185 238.621 41.2805 240.438 41.2805C242.053 41.2805 242.912 40.3214 242.912 38.9583C242.912 37.7972 242.205 37.1409 242.205 35.9798C242.205 34.3139 243.618 33.3043 245.587 33.3043C248.061 33.3043 249.474 34.8187 249.474 39.1603V42.0883C243.719 44.6629 236.399 47.4899 236.399 53.8508C236.399 57.1321 238.419 59.8077 242.003 59.8077C245.638 59.8077 248.313 57.0312 249.474 52.2858V53.1945C249.474 57.8894 251.191 59.8077 254.068 59.8077C257.4 59.8077 258.612 57.1321 258.763 53.2954H257.602ZM243.972 55.971C242.205 55.971 241.246 54.608 241.246 52.4877C241.246 48.2976 245.385 45.8745 249.474 43.7542V49.7112C248.162 54.1032 245.991 55.971 243.972 55.971ZM272.958 47.6919C272.958 53.6993 271.847 56.5263 269.575 56.5263C267.203 56.5263 266.748 53.5479 266.748 49.0549V34.3139H272.705V32.2441H266.647V24.8736H264.83C264.325 29.619 262.003 32.3451 258.318 32.4461V34.3139H261.851V50.3674C261.851 57.435 263.921 59.8077 267.859 59.8077C272.806 59.8077 274.371 55.5672 274.371 47.6919H272.958ZM281.639 26.3881C283.506 26.3881 284.87 25.0756 284.87 23.3087C284.87 21.4913 283.506 20.1787 281.639 20.1787C279.72 20.1787 278.357 21.4913 278.357 23.3087C278.357 25.0756 279.72 26.3881 281.639 26.3881ZM284.466 31.9917L283.607 31.2345L276.186 34.2129L276.641 35.3741C279.569 34.1625 279.619 34.8692 279.619 38.2516V53.8003C279.619 57.0312 279.114 57.7884 276.035 57.7884V59H288.05V57.7884C284.97 57.7884 284.466 57.0312 284.466 53.8003V31.9917ZM301.093 59.8077C307.908 59.8077 311.947 53.5479 311.947 45.4201C311.947 37.1409 307.605 31.3354 301.093 31.3354C294.227 31.3354 290.239 37.5953 290.239 45.723C290.239 54.0022 294.53 59.8077 301.093 59.8077ZM301.85 57.5865C297.408 57.5865 295.287 49.6102 295.287 42.7445C295.287 38.3021 296.751 33.5567 300.336 33.5567C304.778 33.5567 306.848 41.533 306.848 48.3986C306.848 52.8411 305.435 57.5865 301.85 57.5865ZM314.243 59H325.653V57.7884C322.977 57.7884 322.573 57.0312 322.573 53.8003V38.7564C324.491 36.2827 326.309 34.8692 328.379 34.8692C330.297 34.8692 331.357 36.1818 331.357 38.9583V53.8003C331.357 57.0312 330.953 57.7884 328.278 57.7884V59H339.586V57.7884C336.708 57.7884 336.254 57.0312 336.254 53.8003V38.6554C336.254 33.9101 334.285 31.3354 330.701 31.3354C327.268 31.3354 324.996 33.5062 322.725 36.6361H322.573V31.9917L321.614 31.2345L318.181 32.648L314.142 34.2634L314.647 35.4245C317.676 34.1625 317.676 34.8692 317.676 38.2516V53.8003C317.676 57.0312 317.171 57.7884 314.243 57.7884V59ZM346.039 59.8077C347.654 59.8077 349.017 58.4952 349.017 56.8292C349.017 55.2138 347.654 53.8508 346.039 53.8508C344.373 53.8508 343.06 55.2138 343.06 56.8292C343.06 58.4952 344.373 59.8077 346.039 59.8077Z" fill="black"/>
</svg>
