<svg width="1668" height="212" viewBox="0 0 1668 212" fill="none" xmlns="http://www.w3.org/2000/svg">
<g clip-path="url(#clip0_465_783)">
<path d="M129.475 9.19333L133.298 52.5016L126.927 53C123.603 16.836 119.281 13.0146 100.666 13.0146H53.0201C45.8732 13.0146 42.0504 16.836 42.0504 23.7033V102.954H81.8293C97.3974 102.954 100.943 100.683 100.943 73.6573H106.317V140.392H100.943C100.943 113.366 97.3974 111.095 81.8293 111.095H42.0504V183.479C42.0504 199.041 44.3219 202.585 69.3084 202.585V207.957H0V202.585C24.2108 202.585 26.4823 199.041 26.4823 183.479V28.5214C26.4823 12.9593 24.2108 9.41485 0 9.41485V4.09824H128.977L129.475 9.19333Z" fill="black"/>
<path d="M164.379 144.435V28.5214C164.379 12.9593 162.107 9.41485 137.896 9.41485V4.09824H206.706V9.47023C182.218 9.47023 179.947 13.0146 179.947 28.5768V144.435C179.947 184.42 197.288 202.253 229.643 202.253C258.674 202.253 277.067 183.922 277.067 144.158V28.5214C277.067 12.9593 274.796 9.41485 250.585 9.41485V4.09824H312.802V9.47023C288.314 9.47023 286.043 13.0146 286.043 28.5768V144.213C286.043 177.054 273.577 212 227.427 212C178.008 212 164.49 178.605 164.49 144.49L164.379 144.435Z" fill="black"/>
<path d="M349.921 13.0146C331.306 13.0146 326.984 16.836 323.66 53L317.289 52.5016L321.112 9.19333L321.61 4.09824H450.587L451.086 9.19333L454.909 52.5016L448.537 53C445.213 16.836 440.615 13.0146 422.055 13.0146H401.944C396.847 13.0146 394.021 15.8391 394.021 20.9342V183.479C394.021 199.041 396.071 202.585 420.504 202.585V207.957H351.694V202.585C376.182 202.585 378.176 199.041 378.176 183.479V20.8788C378.176 15.7837 375.351 12.9593 370.254 12.9593H349.866L349.921 13.0146Z" fill="black"/>
<path d="M487.264 144.435V28.5214C487.264 12.9593 484.992 9.41485 460.781 9.41485V4.09824H529.591V9.47023C505.103 9.47023 502.832 13.0146 502.832 28.5768V144.435C502.832 184.42 520.173 202.253 552.528 202.253C581.559 202.253 599.952 183.922 599.952 144.158V28.5214C599.952 12.9593 597.681 9.41485 573.47 9.41485V4.09824H635.687V9.47023C611.199 9.47023 608.927 13.0146 608.927 28.5768V144.213C608.927 177.054 596.462 212 550.312 212C500.893 212 487.374 178.605 487.374 144.49L487.264 144.435Z" fill="black"/>
<path d="M762.282 180.377C770.703 195.939 774.249 202.308 793.861 202.308V207.902H787.213C759.955 207.902 756.354 204.08 745.661 182.703L708.985 110.874H704.386C698.015 110.874 692.419 110.375 687.045 109.6V183.479C687.045 199.041 689.317 202.585 713.528 202.585V207.957H644.939V202.585C669.15 202.585 671.422 199.041 671.422 183.479V28.5214C671.422 12.9593 669.15 9.41485 644.939 9.41485V4.09824H712.253C752.254 4.09824 771.645 23.4817 771.645 55.0491C771.645 86.6165 750.98 104.726 721.45 109.6C726.049 112.424 729.594 117.242 735.19 128.706L762.226 180.433L762.282 180.377ZM687.101 100.628C692.696 101.902 698.846 102.4 705.439 102.4C735.024 102.4 755.135 88.6656 755.135 56.766C755.135 28.2445 738.847 12.6824 710.037 12.6824C703.943 12.6824 697.793 13.4577 691.921 15.2299C688.597 16.5037 687.101 19.0512 687.101 22.3741V100.573V100.628Z" fill="black"/>
<path d="M926.882 9.19333L931.481 52.5016L925.109 53C921.286 16.836 916.965 13.0146 898.35 13.0146H855.025C847.878 13.0146 844.056 16.836 844.056 23.7033V97.3605H882.782C898.073 97.3605 901.619 95.0899 901.619 68.2853H906.993V134.521H901.619C901.619 107.495 898.073 105.225 882.782 105.225H844.056V184.475C844.056 196.438 846.105 198.985 856.022 198.985H898.35C917.464 198.985 923.059 193.613 934.029 154.68L940.677 156.452L927.436 203.084L926.162 207.902H802.061V202.53C826.271 202.53 828.543 198.985 828.543 183.423V28.5214C828.543 12.9593 826.271 9.41485 802.061 9.41485V4.09824H926.439L926.938 9.19333H926.882Z" fill="black"/>
<path d="M1029.82 194.389C1025.22 189.571 1022.67 189.571 1021.4 196.161L1019.35 208.123H1013.75L1014.03 134.521H1019.63C1021.4 175.559 1041.01 203.305 1067.55 203.305C1091.76 203.305 1101.95 183.423 1101.95 166.089C1101.95 140.115 1081.57 124.331 1060.18 107.994C1036.97 90.4378 1015.3 73.6019 1015.3 44.8036C1015.3 17.7774 1034.14 -0.0553894 1061.45 -0.0553894C1074.47 -0.0553894 1084.11 3.76593 1093.59 12.9592C1097.69 16.7806 1101.23 15.7837 1101.73 10.4117L1102.73 2.49216H1108.1L1111.43 68.7283H1106.05C1102.73 34.3365 1088.71 8.58411 1061.45 8.58411C1040.79 8.58411 1029.6 23.8694 1029.6 41.7022C1029.6 64.3532 1046.94 78.6416 1068.6 94.9791C1092.81 113.089 1116.03 130.922 1116.03 162.766C1116.03 190.512 1097.19 211.945 1067.6 211.945C1053.09 211.945 1039.57 204.8 1029.88 194.389H1029.82Z" fill="black"/>
<path d="M1152.7 13.0146C1134.09 13.0146 1129.77 16.836 1126.44 53L1120.07 52.5016L1123.89 9.19333L1124.39 4.09824H1253.37L1253.87 9.19333L1257.69 52.5016L1251.32 53C1247.99 16.836 1243.4 13.0146 1224.84 13.0146H1204.73C1199.63 13.0146 1196.8 15.8391 1196.8 20.9342V183.479C1196.8 199.041 1198.85 202.585 1223.29 202.585V207.957H1154.48V202.585C1178.96 202.585 1180.96 199.041 1180.96 183.479V20.8788C1180.96 15.7837 1178.13 12.9593 1173.03 12.9593H1152.65L1152.7 13.0146Z" fill="black"/>
<path d="M1383.56 184.697C1388.38 199.705 1392.98 202.53 1409.05 202.53V207.902H1346.83V202.53C1371.54 202.53 1371.04 199.484 1366.44 184.697L1352.43 139.617H1281.57L1267.27 184.697C1262.68 199.484 1262.18 202.53 1286.89 202.53V207.902H1233.37V202.53C1249.16 202.53 1253.48 199.705 1258.35 184.697L1316.8 0.276917H1324.95L1383.56 184.752V184.697ZM1284.17 131.42H1349.93L1317.58 27.9676H1316.58L1284.23 131.42H1284.17Z" fill="black"/>
<path d="M1418.47 13.0146C1399.85 13.0146 1395.53 16.836 1392.21 53L1385.84 52.5016L1389.66 9.19333L1390.16 4.09824H1519.13L1519.63 9.19333L1523.46 52.5016L1517.08 53C1513.76 16.836 1509.16 13.0146 1490.6 13.0146H1470.49C1465.39 13.0146 1462.57 15.8391 1462.57 20.9342V183.479C1462.57 199.041 1464.62 202.585 1489.05 202.585V207.957H1420.24V202.585C1444.73 202.585 1446.72 199.041 1446.72 183.479V20.8788C1446.72 15.7837 1443.9 12.9593 1438.8 12.9593H1418.41L1418.47 13.0146Z" fill="black"/>
<path d="M1654.2 9.19333L1658.8 52.5016L1652.43 53C1648.61 16.836 1644.29 13.0146 1625.67 13.0146H1582.35C1575.2 13.0146 1571.38 16.836 1571.38 23.7033V97.3605H1610.1C1625.4 97.3605 1628.94 95.0899 1628.94 68.2853H1634.31V134.521H1628.94C1628.94 107.495 1625.4 105.225 1610.1 105.225H1571.38V184.475C1571.38 196.438 1573.43 198.985 1583.34 198.985H1625.67C1644.79 198.985 1650.38 193.613 1661.35 154.68L1668 156.452L1654.76 203.084L1653.48 207.902H1529.38V202.53C1553.59 202.53 1555.87 198.985 1555.87 183.423V28.5214C1555.87 12.9593 1553.59 9.41485 1529.38 9.41485V4.09824H1653.76L1654.26 9.19333H1654.2Z" fill="black"/>
</g>
<defs>
<clipPath id="clip0_465_783">
<rect width="1668" height="212" fill="white"/>
</clipPath>
</defs>
</svg>
