<svg width="36" height="45" viewBox="0 0 36 45" fill="none" xmlns="http://www.w3.org/2000/svg">
<path d="M18.3047 29.2109C19.1445 29.2109 19.8672 28.5078 19.8672 27.6875V7.62891L19.75 4.69922L21.0586 6.08594L24.0273 9.25C24.3008 9.5625 24.6914 9.71875 25.082 9.71875C25.8828 9.71875 26.5078 9.13281 26.5078 8.33203C26.5078 7.92188 26.332 7.60938 26.0391 7.31641L19.4375 0.949219C19.0469 0.558594 18.7148 0.421875 18.3047 0.421875C17.9141 0.421875 17.582 0.558594 17.1719 0.949219L10.5703 7.31641C10.2773 7.60938 10.1211 7.92188 10.1211 8.33203C10.1211 9.13281 10.707 9.71875 11.5273 9.71875C11.8984 9.71875 12.3281 9.5625 12.6016 9.25L15.5508 6.08594L16.8789 4.69922L16.7617 7.62891V27.6875C16.7617 28.5078 17.4648 29.2109 18.3047 29.2109ZM7.11328 44.5039H29.5156C33.5977 44.5039 35.6484 42.4727 35.6484 38.4492V18.957C35.6484 14.9336 33.5977 12.9023 29.5156 12.9023H24.0664V16.0469H29.457C31.3906 16.0469 32.5039 17.1016 32.5039 19.1328V38.2734C32.5039 40.3047 31.3906 41.3594 29.457 41.3594H7.15234C5.19922 41.3594 4.125 40.3047 4.125 38.2734V19.1328C4.125 17.1016 5.19922 16.0469 7.15234 16.0469H12.5625V12.9023H7.11328C3.03125 12.9023 0.980469 14.9336 0.980469 18.957V38.4492C0.980469 42.4727 3.03125 44.5039 7.11328 44.5039Z" fill="black"/>
</svg>
